<mxfile host="app.diagrams.net" agent="Mozilla/5.0 (Windows NT 10.0; Win64; x64) AppleWebKit/537.36 (KHTML, like Gecko) Chrome/137.0.0.0 Safari/537.36" version="27.1.6" pages="4">
  <diagram id="l5tVfilbcxxOehL3DPyS" name="Vertical">
    <mxGraphModel dx="650" dy="-466" grid="1" gridSize="10" guides="1" tooltips="1" connect="1" arrows="1" fold="1" page="0" pageScale="1" pageWidth="827" pageHeight="1169" math="0" shadow="0">
      <root>
        <mxCell id="gH_hcZERuxUluIT7-EIQ-0" />
        <mxCell id="gH_hcZERuxUluIT7-EIQ-1" parent="gH_hcZERuxUluIT7-EIQ-0" />
        <mxCell id="FTSm8BguTjZHQq8JtcMR-0" value="" style="endArrow=none;html=1;strokeWidth=3;strokeColor=#CCCCCC;labelBackgroundColor=none;fontSize=16;rounded=0;" parent="gH_hcZERuxUluIT7-EIQ-1" source="FTSm8BguTjZHQq8JtcMR-1" target="FTSm8BguTjZHQq8JtcMR-2" edge="1">
          <mxGeometry relative="1" as="geometry" />
        </mxCell>
        <mxCell id="FTSm8BguTjZHQq8JtcMR-1" value="" style="ellipse;whiteSpace=wrap;html=1;aspect=fixed;shadow=0;fillColor=none;strokeColor=#333333;fontSize=16;align=center;strokeWidth=2;" parent="gH_hcZERuxUluIT7-EIQ-1" vertex="1">
          <mxGeometry x="244" y="860" width="12" height="12" as="geometry" />
        </mxCell>
        <mxCell id="FTSm8BguTjZHQq8JtcMR-2" value="" style="ellipse;whiteSpace=wrap;html=1;aspect=fixed;shadow=0;fillColor=none;strokeColor=#333333;fontSize=16;align=center;strokeWidth=2;" parent="gH_hcZERuxUluIT7-EIQ-1" vertex="1">
          <mxGeometry x="244" y="1210" width="12" height="12" as="geometry" />
        </mxCell>
        <mxCell id="FTSm8BguTjZHQq8JtcMR-3" value="" style="verticalLabelPosition=middle;verticalAlign=middle;html=1;shape=mxgraph.infographic.circularCallout2;dy=15;strokeColor=#10739E;labelPosition=center;align=center;fontColor=#10739E;fontStyle=1;fontSize=24;shadow=0;direction=north;" parent="gH_hcZERuxUluIT7-EIQ-1" vertex="1">
          <mxGeometry x="10" y="890" width="246" height="60" as="geometry" />
        </mxCell>
        <mxCell id="FTSm8BguTjZHQq8JtcMR-4" value="" style="verticalLabelPosition=middle;verticalAlign=middle;html=1;shape=mxgraph.infographic.circularCallout2;dy=15;strokeColor=#F2931E;labelPosition=center;align=center;fontColor=#F2931E;fontStyle=1;fontSize=24;shadow=0;direction=north;flipH=1;" parent="gH_hcZERuxUluIT7-EIQ-1" vertex="1">
          <mxGeometry x="244" y="960" width="246" height="60" as="geometry" />
        </mxCell>
        <mxCell id="FTSm8BguTjZHQq8JtcMR-5" value="" style="verticalLabelPosition=middle;verticalAlign=middle;html=1;shape=mxgraph.infographic.circularCallout2;dy=15;strokeColor=#AE4132;labelPosition=center;align=center;fontColor=#10739E;fontStyle=1;fontSize=24;shadow=0;direction=north;" parent="gH_hcZERuxUluIT7-EIQ-1" vertex="1">
          <mxGeometry x="10" y="1030" width="246" height="60" as="geometry" />
        </mxCell>
        <mxCell id="FTSm8BguTjZHQq8JtcMR-6" value="" style="verticalLabelPosition=middle;verticalAlign=middle;html=1;shape=mxgraph.infographic.circularCallout2;dy=15;strokeColor=#23445D;labelPosition=center;align=center;fontColor=#10739E;fontStyle=1;fontSize=24;shadow=0;direction=north;flipH=1;" parent="gH_hcZERuxUluIT7-EIQ-1" vertex="1">
          <mxGeometry x="244" y="1095" width="246" height="60" as="geometry" />
        </mxCell>
        <mxCell id="FTSm8BguTjZHQq8JtcMR-7" value="" style="verticalLabelPosition=middle;verticalAlign=middle;html=1;shape=mxgraph.infographic.circularCallout2;dy=15;strokeColor=#12AAB5;labelPosition=center;align=center;fontColor=#10739E;fontStyle=1;fontSize=24;shadow=0;direction=north;" parent="gH_hcZERuxUluIT7-EIQ-1" vertex="1">
          <mxGeometry x="10" y="1150" width="246" height="60" as="geometry" />
        </mxCell>
        <mxCell id="FTSm8BguTjZHQq8JtcMR-9" value=" Dataset Collection" style="fillColor=#10739E;strokecolor=none;rounded=1;fontColor=#FFFFFF;strokeColor=none;fontStyle=1;fontSize=14;" parent="gH_hcZERuxUluIT7-EIQ-1" vertex="1">
          <mxGeometry x="80" y="880" width="160" height="30" as="geometry" />
        </mxCell>
        <mxCell id="FTSm8BguTjZHQq8JtcMR-10" value="Annotation Phase" style="fillColor=#F2931E;strokecolor=none;rounded=1;fontColor=#FFFFFF;strokeColor=none;fontStyle=1;fontSize=14;" parent="gH_hcZERuxUluIT7-EIQ-1" vertex="1">
          <mxGeometry x="260" y="945" width="160" height="30" as="geometry" />
        </mxCell>
        <mxCell id="FTSm8BguTjZHQq8JtcMR-11" value="Model Selection (Initial) &#xa;&amp;Training" style="fillColor=#AE4132;strokecolor=none;rounded=1;fontColor=#FFFFFF;strokeColor=none;fontStyle=1;fontSize=14;" parent="gH_hcZERuxUluIT7-EIQ-1" vertex="1">
          <mxGeometry x="80" y="1015" width="160" height="40" as="geometry" />
        </mxCell>
        <mxCell id="FTSm8BguTjZHQq8JtcMR-12" value="Evaluation &amp; Tuning " style="fillColor=#23445D;strokecolor=none;rounded=1;fontColor=#FFFFFF;strokeColor=none;fontStyle=1;fontSize=14;" parent="gH_hcZERuxUluIT7-EIQ-1" vertex="1">
          <mxGeometry x="260" y="1080" width="160" height="40" as="geometry" />
        </mxCell>
        <mxCell id="FTSm8BguTjZHQq8JtcMR-13" value="Deployment on Docker" style="fillColor=#12AAB5;strokecolor=none;rounded=1;fontColor=#FFFFFF;strokeColor=none;fontStyle=1;fontSize=14;" parent="gH_hcZERuxUluIT7-EIQ-1" vertex="1">
          <mxGeometry x="80" y="1130" width="160" height="40" as="geometry" />
        </mxCell>
        <mxCell id="FTSm8BguTjZHQq8JtcMR-15" value="&lt;font style=&quot;&quot;&gt;&lt;font color=&quot;#10739e&quot;&gt;&lt;b&gt;Real Shooting&lt;/b&gt;&lt;/font&gt;&lt;br&gt;&lt;font style=&quot;font-size: 10px;&quot; size=&quot;1&quot;&gt;Normal and Different classes of Cheating - Phone Detection, Hand Gestures, etc.&lt;/font&gt;&lt;/font&gt;" style="rounded=1;strokeColor=none;fillColor=#EEEEEE;align=center;arcSize=12;verticalAlign=top;whiteSpace=wrap;html=1;fontSize=12;" parent="gH_hcZERuxUluIT7-EIQ-1" vertex="1">
          <mxGeometry x="80" y="930" width="160" height="70" as="geometry" />
        </mxCell>
        <mxCell id="FTSm8BguTjZHQq8JtcMR-16" value="&lt;font style=&quot;font-size: 10px&quot;&gt;&lt;font style=&quot;font-size: 12px;&quot; color=&quot;#F2931E&quot;&gt;&lt;b&gt;Labelling and Annotating&lt;/b&gt;&lt;/font&gt;&lt;br&gt;&lt;font size=&quot;1&quot;&gt;Drawing bounding boxes for each sub-class of cheating and categorising Cheating VS Normal&lt;/font&gt;&lt;/font&gt;" style="rounded=1;strokeColor=none;fillColor=#EEEEEE;align=center;arcSize=12;verticalAlign=top;whiteSpace=wrap;html=1;fontSize=12;" parent="gH_hcZERuxUluIT7-EIQ-1" vertex="1">
          <mxGeometry x="260" y="1000" width="160" height="70" as="geometry" />
        </mxCell>
        <mxCell id="7zm8uOUjuG1LgAZydGL6-2" value="" style="verticalLabelPosition=bottom;verticalAlign=top;html=1;shape=mxgraph.basic.tick;fillColor=#60a917;strokeColor=#2D7600;fontColor=#ffffff;aspect=fixed;" vertex="1" parent="gH_hcZERuxUluIT7-EIQ-1">
          <mxGeometry x="440" y="970" width="34" height="40" as="geometry" />
        </mxCell>
        <mxCell id="7zm8uOUjuG1LgAZydGL6-3" value="" style="verticalLabelPosition=bottom;verticalAlign=top;html=1;shape=mxgraph.basic.tick;fillColor=#60a917;strokeColor=#2D7600;fontColor=#ffffff;aspect=fixed;" vertex="1" parent="gH_hcZERuxUluIT7-EIQ-1">
          <mxGeometry x="20" y="900" width="34" height="40" as="geometry" />
        </mxCell>
      </root>
    </mxGraphModel>
  </diagram>
  <diagram id="6mlIB4idTHPZ-8wdA6mB" name="Horizontal">
    <mxGraphModel dx="2208" dy="1137" grid="1" gridSize="10" guides="1" tooltips="1" connect="1" arrows="1" fold="1" page="0" pageScale="1" pageWidth="827" pageHeight="1169" math="0" shadow="0">
      <root>
        <mxCell id="t1pzVsahw-ZZCcjiW1g3-0" />
        <mxCell id="t1pzVsahw-ZZCcjiW1g3-1" parent="t1pzVsahw-ZZCcjiW1g3-0" />
        <mxCell id="coYlbArJbQ59_Alc24LM-0" value="" style="fillColor=#dddddd;rounded=0;strokeColor=none;" vertex="1" parent="t1pzVsahw-ZZCcjiW1g3-1">
          <mxGeometry x="-160" y="97.5" width="840" height="30" as="geometry" />
        </mxCell>
        <mxCell id="coYlbArJbQ59_Alc24LM-1" value="Label" style="shape=mxgraph.infographic.ribbonSimple;notch1=0;notch2=10;notch=0;html=1;fillColor=#10739E;strokeColor=none;shadow=0;fontSize=17;fontColor=#FFFFFF;align=left;spacingLeft=10;fontStyle=1;" vertex="1" parent="t1pzVsahw-ZZCcjiW1g3-1">
          <mxGeometry x="-120" y="87.5" width="120" height="50" as="geometry" />
        </mxCell>
        <mxCell id="coYlbArJbQ59_Alc24LM-2" value="Label" style="shape=mxgraph.infographic.ribbonSimple;notch1=0;notch2=10;notch=0;html=1;fillColor=#F2931E;strokeColor=none;shadow=0;fontSize=17;fontColor=#FFFFFF;align=left;spacingLeft=10;fontStyle=1;" vertex="1" parent="t1pzVsahw-ZZCcjiW1g3-1">
          <mxGeometry x="40" y="87.5" width="120" height="50" as="geometry" />
        </mxCell>
        <mxCell id="coYlbArJbQ59_Alc24LM-3" value="Label" style="shape=mxgraph.infographic.ribbonSimple;notch1=0;notch2=10;notch=0;html=1;fillColor=#AE4132;strokeColor=none;shadow=0;fontSize=17;fontColor=#FFFFFF;align=left;spacingLeft=10;fontStyle=1;" vertex="1" parent="t1pzVsahw-ZZCcjiW1g3-1">
          <mxGeometry x="200" y="87.5" width="120" height="50" as="geometry" />
        </mxCell>
        <mxCell id="coYlbArJbQ59_Alc24LM-4" value="Label" style="shape=mxgraph.infographic.ribbonSimple;notch1=0;notch2=10;notch=0;html=1;fillColor=#23445D;strokeColor=none;shadow=0;fontSize=17;fontColor=#FFFFFF;align=left;spacingLeft=10;fontStyle=1;" vertex="1" parent="t1pzVsahw-ZZCcjiW1g3-1">
          <mxGeometry x="360" y="87.5" width="120" height="50" as="geometry" />
        </mxCell>
        <mxCell id="coYlbArJbQ59_Alc24LM-5" value="Label" style="shape=mxgraph.infographic.ribbonSimple;notch1=0;notch2=10;notch=0;html=1;fillColor=#12AAB5;strokeColor=none;shadow=0;fontSize=17;fontColor=#FFFFFF;align=left;spacingLeft=10;fontStyle=1;" vertex="1" parent="t1pzVsahw-ZZCcjiW1g3-1">
          <mxGeometry x="520" y="87.5" width="120" height="50" as="geometry" />
        </mxCell>
        <mxCell id="coYlbArJbQ59_Alc24LM-6" value="&lt;font style=&quot;font-size: 10px&quot;&gt;&lt;font style=&quot;font-size: 12px&quot; color=&quot;#10739E&quot;&gt;&lt;b&gt;Label&lt;/b&gt;&lt;/font&gt;&lt;br&gt;&lt;br&gt;&lt;font size=&quot;1&quot;&gt;Lorem ipsum dolor sit amet, consectetur adipisicing elit&lt;/font&gt;&lt;/font&gt;" style="rounded=1;strokeColor=none;fillColor=#DDDDDD;align=center;arcSize=12;verticalAlign=top;whiteSpace=wrap;html=1;fontSize=12;" vertex="1" parent="t1pzVsahw-ZZCcjiW1g3-1">
          <mxGeometry x="-160" y="7.5" width="200" height="70" as="geometry" />
        </mxCell>
        <mxCell id="coYlbArJbQ59_Alc24LM-7" value="&lt;font style=&quot;font-size: 10px&quot;&gt;&lt;font style=&quot;font-size: 12px&quot; color=&quot;#F2931E&quot;&gt;&lt;b&gt;Label&lt;/b&gt;&lt;/font&gt;&lt;br&gt;&lt;br&gt;&lt;font size=&quot;1&quot;&gt;Lorem ipsum dolor sit amet, consectetur adipisicing elit&lt;/font&gt;&lt;/font&gt;" style="rounded=1;strokeColor=none;fillColor=#DDDDDD;align=center;arcSize=12;verticalAlign=top;whiteSpace=wrap;html=1;fontSize=12;" vertex="1" parent="t1pzVsahw-ZZCcjiW1g3-1">
          <mxGeometry y="147.5" width="200" height="70" as="geometry" />
        </mxCell>
        <mxCell id="coYlbArJbQ59_Alc24LM-8" value="&lt;font style=&quot;font-size: 10px&quot;&gt;&lt;font style=&quot;font-size: 12px&quot; color=&quot;#AE4132&quot;&gt;&lt;b&gt;Label&lt;/b&gt;&lt;/font&gt;&lt;br&gt;&lt;br&gt;&lt;font size=&quot;1&quot;&gt;Lorem ipsum dolor sit amet, consectetur adipisicing elit&lt;/font&gt;&lt;/font&gt;" style="rounded=1;strokeColor=none;fillColor=#DDDDDD;align=center;arcSize=12;verticalAlign=top;whiteSpace=wrap;html=1;fontSize=12;" vertex="1" parent="t1pzVsahw-ZZCcjiW1g3-1">
          <mxGeometry x="160" y="7.5" width="200" height="70" as="geometry" />
        </mxCell>
        <mxCell id="coYlbArJbQ59_Alc24LM-9" value="&lt;font style=&quot;font-size: 10px&quot;&gt;&lt;font style=&quot;font-size: 12px&quot; color=&quot;#23445D&quot;&gt;&lt;b&gt;Label&lt;/b&gt;&lt;/font&gt;&lt;br&gt;&lt;br&gt;&lt;font size=&quot;1&quot;&gt;Lorem ipsum dolor sit amet, consectetur adipisicing elit&lt;/font&gt;&lt;/font&gt;" style="rounded=1;strokeColor=none;fillColor=#DDDDDD;align=center;arcSize=12;verticalAlign=top;whiteSpace=wrap;html=1;fontSize=12;" vertex="1" parent="t1pzVsahw-ZZCcjiW1g3-1">
          <mxGeometry x="320" y="147.5" width="200" height="70" as="geometry" />
        </mxCell>
        <mxCell id="coYlbArJbQ59_Alc24LM-10" value="&lt;font style=&quot;font-size: 10px&quot;&gt;&lt;font style=&quot;font-size: 12px&quot; color=&quot;#12AAB5&quot;&gt;&lt;b&gt;Label&lt;/b&gt;&lt;/font&gt;&lt;br&gt;&lt;br&gt;&lt;font size=&quot;1&quot;&gt;Lorem ipsum dolor sit amet, consectetur adipisicing elit&lt;/font&gt;&lt;/font&gt;" style="rounded=1;strokeColor=none;fillColor=#DDDDDD;align=center;arcSize=12;verticalAlign=top;whiteSpace=wrap;html=1;fontSize=12;" vertex="1" parent="t1pzVsahw-ZZCcjiW1g3-1">
          <mxGeometry x="480" y="7.5" width="200" height="70" as="geometry" />
        </mxCell>
        <mxCell id="coYlbArJbQ59_Alc24LM-11" value="" style="verticalLabelPosition=bottom;verticalAlign=top;html=1;shape=mxgraph.basic.partConcEllipse;startAngle=0.25;endAngle=0.75;arcWidth=0.25;fillColor=#10739E;strokeColor=none;" vertex="1" parent="t1pzVsahw-ZZCcjiW1g3-1">
          <mxGeometry x="760" y="122.5" width="120" height="120" as="geometry" />
        </mxCell>
        <mxCell id="coYlbArJbQ59_Alc24LM-12" value="" style="verticalLabelPosition=bottom;verticalAlign=top;html=1;shape=mxgraph.basic.partConcEllipse;startAngle=0.75;endAngle=0.25;arcWidth=0.25;fillColor=#F2931E;strokeColor=none;" vertex="1" parent="t1pzVsahw-ZZCcjiW1g3-1">
          <mxGeometry x="865" y="122.5" width="120" height="120" as="geometry" />
        </mxCell>
        <mxCell id="coYlbArJbQ59_Alc24LM-13" value="" style="verticalLabelPosition=bottom;verticalAlign=top;html=1;shape=mxgraph.basic.partConcEllipse;startAngle=0.25;endAngle=0.75;arcWidth=0.25;fillColor=#AE4132;strokeColor=none;" vertex="1" parent="t1pzVsahw-ZZCcjiW1g3-1">
          <mxGeometry x="970" y="122.5" width="120" height="120" as="geometry" />
        </mxCell>
        <mxCell id="coYlbArJbQ59_Alc24LM-14" value="" style="verticalLabelPosition=bottom;verticalAlign=top;html=1;shape=mxgraph.basic.partConcEllipse;startAngle=0.75;endAngle=0.25;arcWidth=0.25;fillColor=#23445D;strokeColor=none;" vertex="1" parent="t1pzVsahw-ZZCcjiW1g3-1">
          <mxGeometry x="1075" y="122.5" width="120" height="120" as="geometry" />
        </mxCell>
        <mxCell id="coYlbArJbQ59_Alc24LM-15" value="" style="verticalLabelPosition=bottom;verticalAlign=top;html=1;shape=mxgraph.basic.partConcEllipse;startAngle=0.25;endAngle=0.75;arcWidth=0.25;fillColor=#15AA96;strokeColor=none;" vertex="1" parent="t1pzVsahw-ZZCcjiW1g3-1">
          <mxGeometry x="1180" y="122.5" width="120" height="120" as="geometry" />
        </mxCell>
        <mxCell id="coYlbArJbQ59_Alc24LM-16" value="1" style="shape=ellipse;strokeWidth=6;strokeColor=#10739E;fontSize=15;html=0;fontStyle=1;fontColor=#10739E;" vertex="1" parent="t1pzVsahw-ZZCcjiW1g3-1">
          <mxGeometry x="795" y="157.5" width="50" height="50" as="geometry" />
        </mxCell>
        <mxCell id="coYlbArJbQ59_Alc24LM-17" value="2" style="shape=ellipse;strokeWidth=6;strokeColor=#F2931E;fontSize=15;html=0;fontStyle=1;fontColor=#F2931E;" vertex="1" parent="t1pzVsahw-ZZCcjiW1g3-1">
          <mxGeometry x="900" y="157.5" width="50" height="50" as="geometry" />
        </mxCell>
        <mxCell id="coYlbArJbQ59_Alc24LM-18" value="3" style="shape=ellipse;strokeWidth=6;strokeColor=#AE4132;fontSize=15;html=0;fontStyle=1;fontColor=#AE4132;" vertex="1" parent="t1pzVsahw-ZZCcjiW1g3-1">
          <mxGeometry x="1005" y="157.5" width="50" height="50" as="geometry" />
        </mxCell>
        <mxCell id="coYlbArJbQ59_Alc24LM-19" value="4" style="shape=ellipse;strokeWidth=6;strokeColor=#23445D;fontSize=15;html=0;fontStyle=1;fontColor=#23445D;" vertex="1" parent="t1pzVsahw-ZZCcjiW1g3-1">
          <mxGeometry x="1110" y="157.5" width="50" height="50" as="geometry" />
        </mxCell>
        <mxCell id="coYlbArJbQ59_Alc24LM-20" value="5" style="shape=ellipse;strokeWidth=6;strokeColor=#12AAB5;fontSize=15;html=0;fontStyle=1;fontColor=#12AAB5;" vertex="1" parent="t1pzVsahw-ZZCcjiW1g3-1">
          <mxGeometry x="1215" y="157.5" width="50" height="50" as="geometry" />
        </mxCell>
        <mxCell id="coYlbArJbQ59_Alc24LM-21" value="&lt;font style=&quot;font-size: 10px&quot;&gt;&lt;font style=&quot;font-size: 12px&quot; color=&quot;#10739E&quot;&gt;&lt;b&gt;Label&lt;/b&gt;&lt;/font&gt;&lt;br&gt;&lt;br&gt;&lt;font size=&quot;1&quot;&gt;Lorem ipsum dolor sit amet, consectetur adipisicing elit&lt;/font&gt;&lt;/font&gt;" style="rounded=1;strokeColor=none;fillColor=#EEEEEE;align=center;arcSize=12;verticalAlign=top;whiteSpace=wrap;html=1;fontSize=12;" vertex="1" parent="t1pzVsahw-ZZCcjiW1g3-1">
          <mxGeometry x="760" y="252.5" width="120" height="80" as="geometry" />
        </mxCell>
        <mxCell id="coYlbArJbQ59_Alc24LM-22" value="&lt;font style=&quot;font-size: 10px&quot;&gt;&lt;font style=&quot;font-size: 12px&quot; color=&quot;#F2931E&quot;&gt;&lt;b&gt;Label&lt;/b&gt;&lt;/font&gt;&lt;br&gt;&lt;br&gt;&lt;font size=&quot;1&quot;&gt;Lorem ipsum dolor sit amet, consectetur adipisicing elit&lt;/font&gt;&lt;/font&gt;" style="rounded=1;strokeColor=none;fillColor=#EEEEEE;align=center;arcSize=12;verticalAlign=top;whiteSpace=wrap;html=1;fontSize=12;" vertex="1" parent="t1pzVsahw-ZZCcjiW1g3-1">
          <mxGeometry x="865" y="32.5" width="120" height="80" as="geometry" />
        </mxCell>
        <mxCell id="coYlbArJbQ59_Alc24LM-23" value="&lt;font style=&quot;font-size: 10px&quot;&gt;&lt;font style=&quot;font-size: 12px&quot; color=&quot;#AE4132&quot;&gt;&lt;b&gt;Label&lt;/b&gt;&lt;/font&gt;&lt;br&gt;&lt;br&gt;&lt;font size=&quot;1&quot;&gt;Lorem ipsum dolor sit amet, consectetur adipisicing elit&lt;/font&gt;&lt;/font&gt;" style="rounded=1;strokeColor=none;fillColor=#EEEEEE;align=center;arcSize=12;verticalAlign=top;whiteSpace=wrap;html=1;fontSize=12;" vertex="1" parent="t1pzVsahw-ZZCcjiW1g3-1">
          <mxGeometry x="970" y="252.5" width="120" height="80" as="geometry" />
        </mxCell>
        <mxCell id="coYlbArJbQ59_Alc24LM-24" value="&lt;font style=&quot;font-size: 10px&quot;&gt;&lt;font style=&quot;font-size: 12px&quot; color=&quot;#23445D&quot;&gt;&lt;b&gt;Label&lt;/b&gt;&lt;/font&gt;&lt;br&gt;&lt;br&gt;&lt;font size=&quot;1&quot;&gt;Lorem ipsum dolor sit amet, consectetur adipisicing elit&lt;/font&gt;&lt;/font&gt;" style="rounded=1;strokeColor=none;fillColor=#EEEEEE;align=center;arcSize=12;verticalAlign=top;whiteSpace=wrap;html=1;fontSize=12;" vertex="1" parent="t1pzVsahw-ZZCcjiW1g3-1">
          <mxGeometry x="1075" y="32.5" width="120" height="80" as="geometry" />
        </mxCell>
        <mxCell id="coYlbArJbQ59_Alc24LM-25" value="&lt;font style=&quot;font-size: 10px&quot;&gt;&lt;font style=&quot;font-size: 12px&quot; color=&quot;#12AAB5&quot;&gt;&lt;b&gt;Label&lt;/b&gt;&lt;/font&gt;&lt;br&gt;&lt;br&gt;&lt;font size=&quot;1&quot;&gt;Lorem ipsum dolor sit amet, consectetur adipisicing elit&lt;/font&gt;&lt;/font&gt;" style="rounded=1;strokeColor=none;fillColor=#EEEEEE;align=center;arcSize=12;verticalAlign=top;whiteSpace=wrap;html=1;fontSize=12;" vertex="1" parent="t1pzVsahw-ZZCcjiW1g3-1">
          <mxGeometry x="1180" y="252.5" width="120" height="80" as="geometry" />
        </mxCell>
        <mxCell id="coYlbArJbQ59_Alc24LM-26" value="Label" style="html=1;shape=mxgraph.infographic.barCallout;dx=60;dy=30;fillColor=#10739E;strokeColor=none;align=center;verticalAlign=top;fontColor=#ffffff;fontSize=14;fontStyle=1;shadow=0;spacingTop=5;" vertex="1" parent="t1pzVsahw-ZZCcjiW1g3-1">
          <mxGeometry x="-90" y="295" width="120" height="70" as="geometry" />
        </mxCell>
        <mxCell id="coYlbArJbQ59_Alc24LM-27" value="Label" style="html=1;shape=mxgraph.infographic.barCallout;dx=80;dy=30;fillColor=#F2931E;strokeColor=none;align=center;verticalAlign=top;fontColor=#ffffff;fontSize=14;fontStyle=1;shadow=0;spacingTop=5;" vertex="1" parent="t1pzVsahw-ZZCcjiW1g3-1">
          <mxGeometry x="30" y="295" width="160" height="70" as="geometry" />
        </mxCell>
        <mxCell id="coYlbArJbQ59_Alc24LM-28" value="Label" style="html=1;shape=mxgraph.infographic.barCallout;dx=40;dy=30;fillColor=#AE4132;strokeColor=none;align=center;verticalAlign=top;fontColor=#ffffff;fontSize=14;fontStyle=1;shadow=0;spacingTop=5;" vertex="1" parent="t1pzVsahw-ZZCcjiW1g3-1">
          <mxGeometry x="190" y="295" width="80" height="70" as="geometry" />
        </mxCell>
        <mxCell id="coYlbArJbQ59_Alc24LM-29" value="Label" style="html=1;shape=mxgraph.infographic.barCallout;dx=100;dy=30;fillColor=#23445D;strokeColor=none;align=center;verticalAlign=top;fontColor=#ffffff;fontSize=14;fontStyle=1;shadow=0;spacingTop=5;" vertex="1" parent="t1pzVsahw-ZZCcjiW1g3-1">
          <mxGeometry x="270" y="295" width="200" height="70" as="geometry" />
        </mxCell>
        <mxCell id="coYlbArJbQ59_Alc24LM-30" value="Label" style="html=1;shape=mxgraph.infographic.barCallout;dx=70;dy=30;fillColor=#12AAB5;strokeColor=none;align=center;verticalAlign=top;fontColor=#ffffff;fontSize=14;fontStyle=1;shadow=0;spacingTop=5;" vertex="1" parent="t1pzVsahw-ZZCcjiW1g3-1">
          <mxGeometry x="470" y="295" width="140" height="70" as="geometry" />
        </mxCell>
        <mxCell id="coYlbArJbQ59_Alc24LM-31" value="1" style="ellipse;whiteSpace=wrap;html=1;aspect=fixed;shadow=0;strokeColor=#10739E;strokeWidth=6;fontSize=16;align=center;fontStyle=1" vertex="1" parent="t1pzVsahw-ZZCcjiW1g3-1">
          <mxGeometry x="-50" y="370" width="40" height="40" as="geometry" />
        </mxCell>
        <mxCell id="coYlbArJbQ59_Alc24LM-32" value="2" style="ellipse;whiteSpace=wrap;html=1;aspect=fixed;shadow=0;strokeColor=#F2931E;strokeWidth=6;fontSize=16;align=center;fontStyle=1" vertex="1" parent="t1pzVsahw-ZZCcjiW1g3-1">
          <mxGeometry x="90" y="370" width="40" height="40" as="geometry" />
        </mxCell>
        <mxCell id="coYlbArJbQ59_Alc24LM-33" value="3" style="ellipse;whiteSpace=wrap;html=1;aspect=fixed;shadow=0;strokeColor=#AE4132;strokeWidth=6;fontSize=16;align=center;fontStyle=1" vertex="1" parent="t1pzVsahw-ZZCcjiW1g3-1">
          <mxGeometry x="210" y="370" width="40" height="40" as="geometry" />
        </mxCell>
        <mxCell id="coYlbArJbQ59_Alc24LM-34" value="4" style="ellipse;whiteSpace=wrap;html=1;aspect=fixed;shadow=0;strokeColor=#23445D;strokeWidth=6;fontSize=16;align=center;fontStyle=1" vertex="1" parent="t1pzVsahw-ZZCcjiW1g3-1">
          <mxGeometry x="350" y="370" width="40" height="40" as="geometry" />
        </mxCell>
        <mxCell id="coYlbArJbQ59_Alc24LM-35" value="5" style="ellipse;whiteSpace=wrap;html=1;aspect=fixed;shadow=0;strokeColor=#12AAB5;strokeWidth=6;fontSize=16;align=center;fontStyle=1" vertex="1" parent="t1pzVsahw-ZZCcjiW1g3-1">
          <mxGeometry x="520" y="370" width="40" height="40" as="geometry" />
        </mxCell>
      </root>
    </mxGraphModel>
  </diagram>
  <diagram id="awqtMdvM-HQkiugRk4_Y" name="Angled">
    <mxGraphModel dx="1950" dy="1374" grid="1" gridSize="10" guides="1" tooltips="1" connect="1" arrows="1" fold="1" page="0" pageScale="1" pageWidth="827" pageHeight="1169" math="0" shadow="0">
      <root>
        <mxCell id="ChlEzymsBXQdgu6JHZ51-0" />
        <mxCell id="ChlEzymsBXQdgu6JHZ51-1" parent="ChlEzymsBXQdgu6JHZ51-0" />
        <mxCell id="ChlEzymsBXQdgu6JHZ51-2" value="" style="verticalLabelPosition=bottom;verticalAlign=top;html=1;shape=mxgraph.basic.partConcEllipse;startAngle=0.75;endAngle=0.5;arcWidth=0.25;fillColor=#10739E;strokeColor=none;shadow=0;" vertex="1" parent="ChlEzymsBXQdgu6JHZ51-1">
          <mxGeometry x="-130" y="-50" width="120" height="120" as="geometry" />
        </mxCell>
        <mxCell id="ChlEzymsBXQdgu6JHZ51-3" value="" style="verticalLabelPosition=bottom;verticalAlign=top;html=1;shape=mxgraph.basic.partConcEllipse;startAngle=0.25;endAngle=0;arcWidth=0.25;fillColor=#F2931E;strokeColor=none;shadow=0;" vertex="1" parent="ChlEzymsBXQdgu6JHZ51-1">
          <mxGeometry x="-130" y="55" width="120" height="120" as="geometry" />
        </mxCell>
        <mxCell id="ChlEzymsBXQdgu6JHZ51-4" value="" style="verticalLabelPosition=bottom;verticalAlign=top;html=1;shape=mxgraph.basic.partConcEllipse;startAngle=0.75;endAngle=0.5;arcWidth=0.25;fillColor=#AE4132;strokeColor=none;shadow=0;" vertex="1" parent="ChlEzymsBXQdgu6JHZ51-1">
          <mxGeometry x="-25" y="55" width="120" height="120" as="geometry" />
        </mxCell>
        <mxCell id="ChlEzymsBXQdgu6JHZ51-5" value="" style="verticalLabelPosition=bottom;verticalAlign=top;html=1;shape=mxgraph.basic.partConcEllipse;startAngle=0.25;endAngle=0;arcWidth=0.25;fillColor=#23445D;strokeColor=none;shadow=0;" vertex="1" parent="ChlEzymsBXQdgu6JHZ51-1">
          <mxGeometry x="-25" y="160" width="120" height="120" as="geometry" />
        </mxCell>
        <mxCell id="ChlEzymsBXQdgu6JHZ51-6" value="" style="verticalLabelPosition=bottom;verticalAlign=top;html=1;shape=mxgraph.basic.partConcEllipse;startAngle=0.75;endAngle=0.5;arcWidth=0.25;fillColor=#12AAB5;strokeColor=none;shadow=0;" vertex="1" parent="ChlEzymsBXQdgu6JHZ51-1">
          <mxGeometry x="80" y="160" width="120" height="120" as="geometry" />
        </mxCell>
        <mxCell id="ChlEzymsBXQdgu6JHZ51-7" value="1" style="shape=ellipse;strokeWidth=6;strokeColor=#10739E;fontSize=15;html=1;fontStyle=1;fontColor=#10739E;shadow=1;" vertex="1" parent="ChlEzymsBXQdgu6JHZ51-1">
          <mxGeometry x="-95" y="-15" width="50" height="50" as="geometry" />
        </mxCell>
        <mxCell id="ChlEzymsBXQdgu6JHZ51-8" value="2" style="shape=ellipse;strokeWidth=6;strokeColor=#F2931E;fontSize=15;html=1;fontStyle=1;fontColor=#F2931E;shadow=1;" vertex="1" parent="ChlEzymsBXQdgu6JHZ51-1">
          <mxGeometry x="-95" y="90" width="50" height="50" as="geometry" />
        </mxCell>
        <mxCell id="ChlEzymsBXQdgu6JHZ51-9" value="3" style="shape=ellipse;strokeWidth=6;strokeColor=#AE4132;fontSize=15;html=1;fontStyle=1;fontColor=#AE4132;shadow=1;" vertex="1" parent="ChlEzymsBXQdgu6JHZ51-1">
          <mxGeometry x="10" y="90" width="50" height="50" as="geometry" />
        </mxCell>
        <mxCell id="ChlEzymsBXQdgu6JHZ51-10" value="4" style="shape=ellipse;strokeWidth=6;strokeColor=#23445D;fontSize=15;html=1;fontStyle=1;fontColor=#23445D;shadow=1;" vertex="1" parent="ChlEzymsBXQdgu6JHZ51-1">
          <mxGeometry x="10" y="195" width="50" height="50" as="geometry" />
        </mxCell>
        <mxCell id="ChlEzymsBXQdgu6JHZ51-11" value="5" style="shape=ellipse;strokeWidth=6;strokeColor=#12AAB5;fontSize=15;html=1;fontStyle=1;fontColor=#12AAB5;shadow=1;" vertex="1" parent="ChlEzymsBXQdgu6JHZ51-1">
          <mxGeometry x="115" y="195" width="50" height="50" as="geometry" />
        </mxCell>
        <mxCell id="ChlEzymsBXQdgu6JHZ51-12" value="&lt;font style=&quot;font-size: 10px&quot;&gt;&lt;font style=&quot;font-size: 12px&quot; color=&quot;#10739E&quot;&gt;&lt;b&gt;Label&lt;/b&gt;&lt;/font&gt;&lt;br&gt;&lt;br&gt;&lt;font size=&quot;1&quot;&gt;Lorem ipsum dolor sit amet, consectetur adipisicing elit&lt;/font&gt;&lt;/font&gt;" style="rounded=1;strokeColor=none;fillColor=#EEEEEE;align=center;arcSize=12;verticalAlign=top;whiteSpace=wrap;html=1;fontSize=12;spacing=3;shadow=0;" vertex="1" parent="ChlEzymsBXQdgu6JHZ51-1">
          <mxGeometry y="-30" width="180" height="70" as="geometry" />
        </mxCell>
        <mxCell id="ChlEzymsBXQdgu6JHZ51-13" value="&lt;font style=&quot;font-size: 10px&quot;&gt;&lt;font style=&quot;font-size: 12px&quot; color=&quot;#F2931E&quot;&gt;&lt;b&gt;Label&lt;/b&gt;&lt;/font&gt;&lt;br&gt;&lt;br&gt;&lt;font size=&quot;1&quot;&gt;Lorem ipsum dolor sit amet, consectetur adipisicing elit&lt;/font&gt;&lt;/font&gt;" style="rounded=1;strokeColor=none;fillColor=#EEEEEE;align=center;arcSize=12;verticalAlign=top;whiteSpace=wrap;html=1;fontSize=12;spacing=3;shadow=0;" vertex="1" parent="ChlEzymsBXQdgu6JHZ51-1">
          <mxGeometry x="-320" y="80" width="180" height="70" as="geometry" />
        </mxCell>
        <mxCell id="ChlEzymsBXQdgu6JHZ51-14" value="&lt;font style=&quot;font-size: 10px&quot;&gt;&lt;font style=&quot;font-size: 12px&quot; color=&quot;#AE4132&quot;&gt;&lt;b&gt;Label&lt;/b&gt;&lt;/font&gt;&lt;br&gt;&lt;br&gt;&lt;font size=&quot;1&quot;&gt;Lorem ipsum dolor sit amet, consectetur adipisicing elit&lt;/font&gt;&lt;/font&gt;" style="rounded=1;strokeColor=none;fillColor=#EEEEEE;align=center;arcSize=12;verticalAlign=top;whiteSpace=wrap;html=1;fontSize=12;spacing=3;shadow=0;" vertex="1" parent="ChlEzymsBXQdgu6JHZ51-1">
          <mxGeometry x="105" y="80" width="180" height="70" as="geometry" />
        </mxCell>
        <mxCell id="ChlEzymsBXQdgu6JHZ51-15" value="&lt;font style=&quot;font-size: 10px&quot;&gt;&lt;font style=&quot;font-size: 12px&quot; color=&quot;#23445D&quot;&gt;&lt;b&gt;Label&lt;/b&gt;&lt;/font&gt;&lt;br&gt;&lt;br&gt;&lt;font size=&quot;1&quot;&gt;Lorem ipsum dolor sit amet, consectetur adipisicing elit&lt;/font&gt;&lt;/font&gt;" style="rounded=1;strokeColor=none;fillColor=#EEEEEE;align=center;arcSize=12;verticalAlign=top;whiteSpace=wrap;html=1;fontSize=12;spacing=3;shadow=0;" vertex="1" parent="ChlEzymsBXQdgu6JHZ51-1">
          <mxGeometry x="-215" y="185" width="180" height="70" as="geometry" />
        </mxCell>
        <mxCell id="ChlEzymsBXQdgu6JHZ51-16" value="&lt;font style=&quot;font-size: 10px&quot;&gt;&lt;font style=&quot;font-size: 12px&quot; color=&quot;#12AAB5&quot;&gt;&lt;b&gt;Label&lt;/b&gt;&lt;/font&gt;&lt;br&gt;&lt;br&gt;&lt;font size=&quot;1&quot;&gt;Lorem ipsum dolor sit amet, consectetur adipisicing elit&lt;/font&gt;&lt;/font&gt;" style="rounded=1;strokeColor=none;fillColor=#EEEEEE;align=center;arcSize=12;verticalAlign=top;whiteSpace=wrap;html=1;fontSize=12;spacing=3;shadow=0;" vertex="1" parent="ChlEzymsBXQdgu6JHZ51-1">
          <mxGeometry x="210" y="185" width="180" height="70" as="geometry" />
        </mxCell>
        <mxCell id="ChlEzymsBXQdgu6JHZ51-27" value="1" style="html=1;fillColor=#10739E;strokeColor=none;shadow=0;fontSize=17;fontColor=#FFFFFF;align=center;fontStyle=1;rounded=0;" vertex="1" parent="ChlEzymsBXQdgu6JHZ51-1">
          <mxGeometry x="440" y="5" width="40" height="40" as="geometry" />
        </mxCell>
        <mxCell id="ChlEzymsBXQdgu6JHZ51-28" value="Label" style="shape=mxgraph.infographic.ribbonSimple;notch1=0;notch2=10;notch=0;html=1;fillColor=#64BBE2;strokeColor=none;shadow=0;fontSize=17;fontColor=#FFFFFF;align=left;spacingLeft=10;fontStyle=1;" vertex="1" parent="ChlEzymsBXQdgu6JHZ51-1">
          <mxGeometry x="485" y="5" width="95" height="40" as="geometry" />
        </mxCell>
        <mxCell id="ChlEzymsBXQdgu6JHZ51-29" value="2" style="html=1;fillColor=#F2931E;strokeColor=none;shadow=0;fontSize=17;fontColor=#FFFFFF;align=center;fontStyle=1;rounded=0;" vertex="1" parent="ChlEzymsBXQdgu6JHZ51-1">
          <mxGeometry x="440" y="50" width="40" height="40" as="geometry" />
        </mxCell>
        <mxCell id="ChlEzymsBXQdgu6JHZ51-30" value="Label" style="shape=mxgraph.infographic.ribbonSimple;notch1=0;notch2=10;notch=0;html=1;fillColor=#F8C382;strokeColor=none;shadow=0;fontSize=17;fontColor=#FFFFFF;align=left;spacingLeft=10;fontStyle=1;" vertex="1" parent="ChlEzymsBXQdgu6JHZ51-1">
          <mxGeometry x="485" y="50" width="115" height="40" as="geometry" />
        </mxCell>
        <mxCell id="ChlEzymsBXQdgu6JHZ51-31" value="3" style="html=1;fillColor=#AE4132;strokeColor=none;shadow=0;fontSize=17;fontColor=#FFFFFF;align=center;fontStyle=1;rounded=0;" vertex="1" parent="ChlEzymsBXQdgu6JHZ51-1">
          <mxGeometry x="440" y="95" width="40" height="40" as="geometry" />
        </mxCell>
        <mxCell id="ChlEzymsBXQdgu6JHZ51-32" value="Label" style="shape=mxgraph.infographic.ribbonSimple;notch1=0;notch2=10;notch=0;html=1;fillColor=#F08E81;strokeColor=none;shadow=0;fontSize=17;fontColor=#FFFFFF;align=left;spacingLeft=10;fontStyle=1;" vertex="1" parent="ChlEzymsBXQdgu6JHZ51-1">
          <mxGeometry x="485" y="95" width="135" height="40" as="geometry" />
        </mxCell>
        <mxCell id="ChlEzymsBXQdgu6JHZ51-33" value="4" style="html=1;fillColor=#23445D;strokeColor=none;shadow=0;fontSize=17;fontColor=#FFFFFF;align=center;fontStyle=1;rounded=0;" vertex="1" parent="ChlEzymsBXQdgu6JHZ51-1">
          <mxGeometry x="440" y="140" width="40" height="40" as="geometry" />
        </mxCell>
        <mxCell id="ChlEzymsBXQdgu6JHZ51-34" value="Label" style="shape=mxgraph.infographic.ribbonSimple;notch1=0;notch2=10;notch=0;html=1;fillColor=#5D7F99;strokeColor=none;shadow=0;fontSize=17;fontColor=#FFFFFF;align=left;spacingLeft=10;fontStyle=1;" vertex="1" parent="ChlEzymsBXQdgu6JHZ51-1">
          <mxGeometry x="485" y="140" width="155" height="40" as="geometry" />
        </mxCell>
        <mxCell id="ChlEzymsBXQdgu6JHZ51-35" value="5" style="html=1;fillColor=#12AAB5;strokeColor=none;shadow=0;fontSize=17;fontColor=#FFFFFF;align=center;fontStyle=1;rounded=0;" vertex="1" parent="ChlEzymsBXQdgu6JHZ51-1">
          <mxGeometry x="440" y="185" width="40" height="40" as="geometry" />
        </mxCell>
        <mxCell id="ChlEzymsBXQdgu6JHZ51-36" value="Label" style="shape=mxgraph.infographic.ribbonSimple;notch1=0;notch2=10;notch=0;html=1;fillColor=#61C6CE;strokeColor=none;shadow=0;fontSize=17;fontColor=#FFFFFF;align=left;spacingLeft=10;fontStyle=1;" vertex="1" parent="ChlEzymsBXQdgu6JHZ51-1">
          <mxGeometry x="485" y="185" width="175" height="40" as="geometry" />
        </mxCell>
      </root>
    </mxGraphModel>
  </diagram>
  <diagram id="1zcTAVt1k4KSup7FvAfL" name="Detailed">
    <mxGraphModel dx="1950" dy="974" grid="1" gridSize="10" guides="1" tooltips="1" connect="1" arrows="1" fold="1" page="0" pageScale="1" pageWidth="827" pageHeight="1169" math="0" shadow="0">
      <root>
        <mxCell id="3D7FDG2aXA9G618_Kong-0" />
        <mxCell id="3D7FDG2aXA9G618_Kong-1" parent="3D7FDG2aXA9G618_Kong-0" />
        <mxCell id="3D7FDG2aXA9G618_Kong-2" value="LABEL" style="shape=step;perimeter=stepPerimeter;whiteSpace=wrap;html=1;fixedSize=1;size=10;fillColor=#10739E;strokeColor=none;fontSize=17;fontColor=#FFFFFF;fontStyle=1;align=center;rounded=0;" vertex="1" parent="3D7FDG2aXA9G618_Kong-1">
          <mxGeometry x="-280" y="120" width="200" height="30" as="geometry" />
        </mxCell>
        <mxCell id="3D7FDG2aXA9G618_Kong-3" value="LABEL" style="shape=step;perimeter=stepPerimeter;whiteSpace=wrap;html=1;fixedSize=1;size=10;fillColor=#F2931E;strokeColor=none;fontSize=17;fontColor=#FFFFFF;fontStyle=1;align=center;rounded=0;" vertex="1" parent="3D7FDG2aXA9G618_Kong-1">
          <mxGeometry x="-80" y="120" width="200" height="30" as="geometry" />
        </mxCell>
        <mxCell id="3D7FDG2aXA9G618_Kong-4" value="LABEL" style="shape=step;perimeter=stepPerimeter;whiteSpace=wrap;html=1;fixedSize=1;size=10;fillColor=#AE4132;strokeColor=none;fontSize=17;fontColor=#FFFFFF;fontStyle=1;align=center;rounded=0;" vertex="1" parent="3D7FDG2aXA9G618_Kong-1">
          <mxGeometry x="120" y="120" width="200" height="30" as="geometry" />
        </mxCell>
        <mxCell id="3D7FDG2aXA9G618_Kong-5" value="LABEL" style="shape=step;perimeter=stepPerimeter;whiteSpace=wrap;html=1;fixedSize=1;size=10;fillColor=#23445D;strokeColor=none;fontSize=17;fontColor=#FFFFFF;fontStyle=1;align=center;rounded=0;" vertex="1" parent="3D7FDG2aXA9G618_Kong-1">
          <mxGeometry x="320" y="120" width="200" height="30" as="geometry" />
        </mxCell>
        <mxCell id="3D7FDG2aXA9G618_Kong-6" value="LABEL" style="shape=step;perimeter=stepPerimeter;whiteSpace=wrap;html=1;fixedSize=1;size=10;fillColor=#12AAB5;strokeColor=none;fontSize=17;fontColor=#FFFFFF;fontStyle=1;align=center;rounded=0;" vertex="1" parent="3D7FDG2aXA9G618_Kong-1">
          <mxGeometry x="520" y="120" width="200" height="30" as="geometry" />
        </mxCell>
        <mxCell id="3D7FDG2aXA9G618_Kong-7" value="&amp;nbsp;- Lorem ipsum dolor sit amet&lt;br&gt;&amp;nbsp;- consectetur adipisicing elit&lt;br&gt;&amp;nbsp;- sed do eiusmod tempor&lt;br&gt;&amp;nbsp;- incididunt ut labore et dolore&lt;br&gt;&amp;nbsp;- magna aliqua." style="shape=rect;fillColor=#B1DDF0;strokeColor=none;fontSize=12;html=1;whiteSpace=wrap;align=left;verticalAlign=top;spacing=5;rounded=0;" vertex="1" parent="3D7FDG2aXA9G618_Kong-1">
          <mxGeometry x="-280" y="160" width="190" height="120" as="geometry" />
        </mxCell>
        <mxCell id="3D7FDG2aXA9G618_Kong-8" value="&amp;nbsp;- Lorem ipsum dolor sit amet&lt;br&gt;&amp;nbsp;- consectetur adipisicing elit&lt;br&gt;&amp;nbsp;- sed do eiusmod tempor&lt;br&gt;&amp;nbsp;- incididunt ut labore et dolore&lt;br&gt;&amp;nbsp;- magna aliqua." style="shape=rect;fillColor=#B1DDF0;strokeColor=none;fontSize=12;html=1;whiteSpace=wrap;align=left;verticalAlign=top;spacing=5;rounded=0;" vertex="1" parent="3D7FDG2aXA9G618_Kong-1">
          <mxGeometry x="-280" y="290" width="190" height="120" as="geometry" />
        </mxCell>
        <mxCell id="3D7FDG2aXA9G618_Kong-9" value="&amp;nbsp;- Lorem ipsum dolor sit amet&lt;br&gt;&amp;nbsp;- consectetur adipisicing elit&lt;br&gt;&amp;nbsp;- sed do eiusmod tempor&lt;br&gt;&amp;nbsp;- incididunt ut labore et dolore&lt;br&gt;&amp;nbsp;- magna aliqua." style="shape=rect;fillColor=#B1DDF0;strokeColor=none;fontSize=12;html=1;whiteSpace=wrap;align=left;verticalAlign=top;spacing=5;rounded=0;" vertex="1" parent="3D7FDG2aXA9G618_Kong-1">
          <mxGeometry x="-280" y="420" width="190" height="120" as="geometry" />
        </mxCell>
        <mxCell id="3D7FDG2aXA9G618_Kong-10" value="&amp;nbsp;- Lorem ipsum dolor sit amet&lt;br&gt;&amp;nbsp;- consectetur adipisicing elit&lt;br&gt;&amp;nbsp;- sed do eiusmod tempor&lt;br&gt;&amp;nbsp;- incididunt ut labore et dolore&lt;br&gt;&amp;nbsp;- magna aliqua." style="shape=rect;fillColor=#FCE7CD;strokeColor=none;fontSize=12;html=1;whiteSpace=wrap;align=left;verticalAlign=top;spacing=5;rounded=0;" vertex="1" parent="3D7FDG2aXA9G618_Kong-1">
          <mxGeometry x="-80" y="160" width="190" height="120" as="geometry" />
        </mxCell>
        <mxCell id="3D7FDG2aXA9G618_Kong-11" value="&amp;nbsp;- Lorem ipsum dolor sit amet&lt;br&gt;&amp;nbsp;- consectetur adipisicing elit&lt;br&gt;&amp;nbsp;- sed do eiusmod tempor&lt;br&gt;&amp;nbsp;- incididunt ut labore et dolore&lt;br&gt;&amp;nbsp;- magna aliqua." style="shape=rect;fillColor=#FCE7CD;strokeColor=none;fontSize=12;html=1;whiteSpace=wrap;align=left;verticalAlign=top;spacing=5;rounded=0;" vertex="1" parent="3D7FDG2aXA9G618_Kong-1">
          <mxGeometry x="-80" y="290" width="190" height="120" as="geometry" />
        </mxCell>
        <mxCell id="3D7FDG2aXA9G618_Kong-12" value="&amp;nbsp;- Lorem ipsum dolor sit amet&lt;br&gt;&amp;nbsp;- consectetur adipisicing elit&lt;br&gt;&amp;nbsp;- sed do eiusmod tempor&lt;br&gt;&amp;nbsp;- incididunt ut labore et dolore&lt;br&gt;&amp;nbsp;- magna aliqua." style="shape=rect;fillColor=#FCE7CD;strokeColor=none;fontSize=12;html=1;whiteSpace=wrap;align=left;verticalAlign=top;spacing=5;rounded=0;" vertex="1" parent="3D7FDG2aXA9G618_Kong-1">
          <mxGeometry x="-80" y="420" width="190" height="120" as="geometry" />
        </mxCell>
        <mxCell id="3D7FDG2aXA9G618_Kong-13" value="&amp;nbsp;- Lorem ipsum dolor sit amet&lt;br&gt;&amp;nbsp;- consectetur adipisicing elit&lt;br&gt;&amp;nbsp;- sed do eiusmod tempor&lt;br&gt;&amp;nbsp;- incididunt ut labore et dolore&lt;br&gt;&amp;nbsp;- magna aliqua." style="shape=rect;fillColor=#FAD9D5;strokeColor=none;fontSize=12;html=1;whiteSpace=wrap;align=left;verticalAlign=top;spacing=5;rounded=0;" vertex="1" parent="3D7FDG2aXA9G618_Kong-1">
          <mxGeometry x="120" y="160" width="190" height="120" as="geometry" />
        </mxCell>
        <mxCell id="3D7FDG2aXA9G618_Kong-14" value="&amp;nbsp;- Lorem ipsum dolor sit amet&lt;br&gt;&amp;nbsp;- consectetur adipisicing elit&lt;br&gt;&amp;nbsp;- sed do eiusmod tempor&lt;br&gt;&amp;nbsp;- incididunt ut labore et dolore&lt;br&gt;&amp;nbsp;- magna aliqua." style="shape=rect;fillColor=#FAD9D5;strokeColor=none;fontSize=12;html=1;whiteSpace=wrap;align=left;verticalAlign=top;spacing=5;rounded=0;" vertex="1" parent="3D7FDG2aXA9G618_Kong-1">
          <mxGeometry x="120" y="290" width="190" height="120" as="geometry" />
        </mxCell>
        <mxCell id="3D7FDG2aXA9G618_Kong-15" value="&amp;nbsp;- Lorem ipsum dolor sit amet&lt;br&gt;&amp;nbsp;- consectetur adipisicing elit&lt;br&gt;&amp;nbsp;- sed do eiusmod tempor&lt;br&gt;&amp;nbsp;- incididunt ut labore et dolore&lt;br&gt;&amp;nbsp;- magna aliqua." style="shape=rect;fillColor=#FAD9D5;strokeColor=none;fontSize=12;html=1;whiteSpace=wrap;align=left;verticalAlign=top;spacing=5;rounded=0;" vertex="1" parent="3D7FDG2aXA9G618_Kong-1">
          <mxGeometry x="120" y="420" width="190" height="120" as="geometry" />
        </mxCell>
        <mxCell id="3D7FDG2aXA9G618_Kong-16" value="&amp;nbsp;- Lorem ipsum dolor sit amet&lt;br&gt;&amp;nbsp;- consectetur adipisicing elit&lt;br&gt;&amp;nbsp;- sed do eiusmod tempor&lt;br&gt;&amp;nbsp;- incididunt ut labore et dolore&lt;br&gt;&amp;nbsp;- magna aliqua." style="shape=rect;fillColor=#BAC8D3;strokeColor=none;fontSize=12;html=1;whiteSpace=wrap;align=left;verticalAlign=top;spacing=5;rounded=0;" vertex="1" parent="3D7FDG2aXA9G618_Kong-1">
          <mxGeometry x="320" y="160" width="190" height="120" as="geometry" />
        </mxCell>
        <mxCell id="3D7FDG2aXA9G618_Kong-17" value="&amp;nbsp;- Lorem ipsum dolor sit amet&lt;br&gt;&amp;nbsp;- consectetur adipisicing elit&lt;br&gt;&amp;nbsp;- sed do eiusmod tempor&lt;br&gt;&amp;nbsp;- incididunt ut labore et dolore&lt;br&gt;&amp;nbsp;- magna aliqua." style="shape=rect;fillColor=#BAC8D3;strokeColor=none;fontSize=12;html=1;whiteSpace=wrap;align=left;verticalAlign=top;spacing=5;rounded=0;" vertex="1" parent="3D7FDG2aXA9G618_Kong-1">
          <mxGeometry x="320" y="290" width="190" height="120" as="geometry" />
        </mxCell>
        <mxCell id="3D7FDG2aXA9G618_Kong-18" value="&amp;nbsp;- Lorem ipsum dolor sit amet&lt;br&gt;&amp;nbsp;- consectetur adipisicing elit&lt;br&gt;&amp;nbsp;- sed do eiusmod tempor&lt;br&gt;&amp;nbsp;- incididunt ut labore et dolore&lt;br&gt;&amp;nbsp;- magna aliqua." style="shape=rect;fillColor=#BAC8D3;strokeColor=none;fontSize=12;html=1;whiteSpace=wrap;align=left;verticalAlign=top;spacing=5;rounded=0;" vertex="1" parent="3D7FDG2aXA9G618_Kong-1">
          <mxGeometry x="320" y="420" width="190" height="120" as="geometry" />
        </mxCell>
        <mxCell id="3D7FDG2aXA9G618_Kong-19" value="&amp;nbsp;- Lorem ipsum dolor sit amet&lt;br&gt;&amp;nbsp;- consectetur adipisicing elit&lt;br&gt;&amp;nbsp;- sed do eiusmod tempor&lt;br&gt;&amp;nbsp;- incididunt ut labore et dolore&lt;br&gt;&amp;nbsp;- magna aliqua." style="shape=rect;fillColor=#B0E3E6;strokeColor=none;fontSize=12;html=1;whiteSpace=wrap;align=left;verticalAlign=top;spacing=5;rounded=0;" vertex="1" parent="3D7FDG2aXA9G618_Kong-1">
          <mxGeometry x="520" y="160" width="190" height="120" as="geometry" />
        </mxCell>
        <mxCell id="3D7FDG2aXA9G618_Kong-20" value="&amp;nbsp;- Lorem ipsum dolor sit amet&lt;br&gt;&amp;nbsp;- consectetur adipisicing elit&lt;br&gt;&amp;nbsp;- sed do eiusmod tempor&lt;br&gt;&amp;nbsp;- incididunt ut labore et dolore&lt;br&gt;&amp;nbsp;- magna aliqua." style="shape=rect;fillColor=#B0E3E6;strokeColor=none;fontSize=12;html=1;whiteSpace=wrap;align=left;verticalAlign=top;spacing=5;rounded=0;" vertex="1" parent="3D7FDG2aXA9G618_Kong-1">
          <mxGeometry x="520" y="290" width="190" height="120" as="geometry" />
        </mxCell>
        <mxCell id="3D7FDG2aXA9G618_Kong-21" value="&amp;nbsp;- Lorem ipsum dolor sit amet&lt;br&gt;&amp;nbsp;- consectetur adipisicing elit&lt;br&gt;&amp;nbsp;- sed do eiusmod tempor&lt;br&gt;&amp;nbsp;- incididunt ut labore et dolore&lt;br&gt;&amp;nbsp;- magna aliqua." style="shape=rect;fillColor=#B0E3E6;strokeColor=none;fontSize=12;html=1;whiteSpace=wrap;align=left;verticalAlign=top;spacing=5;rounded=0;" vertex="1" parent="3D7FDG2aXA9G618_Kong-1">
          <mxGeometry x="520" y="420" width="190" height="120" as="geometry" />
        </mxCell>
      </root>
    </mxGraphModel>
  </diagram>
</mxfile>
